<svg xmlns="http://www.w3.org/2000/svg" style="display: none;">
    <symbol id="iconElectronics" viewBox="0 0 512 512">
        <rect x="32" y="64" width="448" height="320" rx="32" ry="32"/>
        <line x1="32" y1="304" x2="480" y2="304"/>
        <line x1="256" y1="344" x2="256" y2="344"/>
        <polygon points="304 448 296 384 216 384 208 448"/>
        <line x1="368" y1="448" x2="144" y2="448"/>
    </symbol>
    <symbol id="iconRealEstate" viewBox="0 0 512 512">
        <path d="M80,212V448a16,16,0,0,0,16,16h96V328a24,24,0,0,1,24-24h80a24,24,0,0,1,24,24V464h96a16,16,0,0,0,16-16V212"/>
        <path d="M480,256,266.89,52c-5-5.28-16.69-5.34-21.78,0L32,256"/>
        <polyline points="400 179 400 64 352 64 352 133"/>
    </symbol>
    <symbol id="iconJobs" viewBox="0 0 512 512">
        <path d="M402,168c-2.93,40.67-33.1,72-66,72s-63.12-31.32-66-72c-3-42.31,26.37-72,66-72S405,126.46,402,168Z"/>
        <path d="M336,304c-65.17,0-127.84,32.37-143.54,95.41-2.08,8.34,3.15,16.59,11.72,16.59H467.83c8.57,0,13.77-8.25,11.72-16.59C463.85,335.36,401.18,304,336,304Z"/>
        <path d="M200,185.94C197.66,218.42,173.28,244,147,244S96.3,218.43,94,185.94C91.61,152.15,115.34,128,147,128S202.39,152.77,200,185.94Z"/>
        <path d="M206,306c-18.05-8.27-37.93-11.45-59-11.45-52,0-102.1,25.85-114.65,76.2C30.7,377.41,34.88,384,41.72,384H154"/>
    </symbol>
    <symbol id="iconAutomotive" viewBox="0 0 512 512">
        <path d="M469.71,234.6c-7.33-9.73-34.56-16.43-46.08-33.94s-20.95-55.43-50.27-70S288,112,256,112s-88,4-117.36,18.63-38.75,52.52-50.27,70S49.62,224.87,42.29,234.6,29.8,305.84,32.94,336s9,48,9,48h86c14.08,0,18.66-5.29,47.46-8C207,373,238,372,256,372s50,1,81.58,4c28.8,2.73,33.53,8,47.46,8h85s5.86-17.84,9-48S477,244.33,469.71,234.6Z"/>
        <rect x="400" y="384" width="56" height="16"/>
        <rect x="56" y="384" width="56" height="16"/>
        <path d="M364.47,309.16c-5.91-6.83-25.17-12.53-50.67-16.35S279,288,256.2,288s-33.17,1.64-57.61,4.81-42.79,8.81-50.66,16.35C136.12,320.6,153.42,333.44,167,335c13.16,1.5,39.47.95,89.31.95s76.15.55,89.31-.95C359.18,333.35,375.24,321.4,364.47,309.16Z"/>
        <path d="M431.57,243.05a3.23,3.23,0,0,0-3.1-3c-11.81-.42-23.8.42-45.07,6.69a93.88,93.88,0,0,0-30.08,15.06c-2.28,1.78-1.47,6.59,1.39,7.1A455.32,455.32,0,0,0,407.53,272c10.59,0,21.52-3,23.55-12.44A52.41,52.41,0,0,0,431.57,243.05Z"/>
        <path d="M80.43,243.05a3.23,3.23,0,0,1,3.1-3c11.81-.42,23.8.42,45.07,6.69a93.88,93.88,0,0,1,30.08,15.06c2.28,1.78,1.47,6.59-1.39,7.1A455.32,455.32,0,0,1,104.47,272c-10.59,0-21.52-3-23.55-12.44A52.41,52.41,0,0,1,80.43,243.05Z"/>
        <line x1="432" y1="192" x2="448" y2="192"/>
        <line x1="64" y1="192" x2="80" y2="192"/>
        <path d="M78,211s46.35-12,178-12,178,12,178,12"/>
    </symbol>
    <symbol id="iconServices" viewBox="0 0 512 512">
        <path d="M436.67,184.11a27.17,27.17,0,0,1-38.3,0l-22.48-22.49a27.15,27.15,0,0,1,0-38.29l50.89-50.89a.85.85,0,0,0-.26-1.38C393.68,57,351.09,64.15,324.05,91c-25.88,25.69-27.35,64.27-17.87,98a27,27,0,0,1-7.67,27.14l-173,160.76a40.76,40.76,0,1,0,57.57,57.54l162.15-173.3A27,27,0,0,1,372,253.44c33.46,8.94,71.49,7.26,97.07-17.94,27.49-27.08,33.42-74.94,20.1-102.33a.85.85,0,0,0-1.36-.22Z"/>
        <path d="M224,284c-17.48-17-25.49-24.91-31-30.29a18.24,18.24,0,0,1-3.33-21.35,20.76,20.76,0,0,1,3.5-4.62l15.68-15.29a18.66,18.66,0,0,1,5.63-3.87,18.11,18.11,0,0,1,20,3.62c5.45,5.29,15.43,15,33.41,32.52"/>
        <path d="M317.07,291.3c40.95,38.1,90.62,83.27,110,99.41a13.46,13.46,0,0,1,.94,19.92L394.63,444a14,14,0,0,1-20.29-.76c-16.53-19.18-61.09-67.11-99.27-107"/>
        <path d="M17.34,193.5l29.41-28.74a4.71,4.71,0,0,1,3.41-1.35,4.85,4.85,0,0,1,3.41,1.35h0a9.86,9.86,0,0,0,8.19,2.77c3.83-.42,7.92-1.6,10.57-4.12,6-5.8-.94-17.23,4.34-24.54a207,207,0,0,1,19.78-22.6c6-5.88,29.84-28.32,69.9-44.45A107.31,107.31,0,0,1,206.67,64c22.59,0,40,10,46.26,15.67a89.54,89.54,0,0,1,10.28,11.64A78.92,78.92,0,0,0,254,88.54,68.82,68.82,0,0,0,234,87.28c-13.33,1.09-29.41,7.26-38,14-13.9,11-19.87,25.72-20.81,44.71-.68,14.12,2.72,22.1,36.1,55.49a6.6,6.6,0,0,1-.34,9.16l-18.22,18a6.88,6.88,0,0,1-9.54.09c-21.94-21.94-36.65-33.09-45-38.16s-15.07-6.5-18.3-6.85a30.85,30.85,0,0,0-18.27,3.87,11.39,11.39,0,0,0-2.64,2,14.14,14.14,0,0,0,.42,20.08l1.71,1.6a4.63,4.63,0,0,1,0,6.64L71.73,246.6A4.71,4.71,0,0,1,68.32,248a4.86,4.86,0,0,1-3.41-1.35L17.34,200.22A4.88,4.88,0,0,1,17.34,193.5Z"/>
    </symbol>
    <symbol id="iconAnimals" viewBox="0 0 512 512">
        <path d="M240,152c-50.71,12.21-94.15,52.31-120.3,73.43a261.14,261.14,0,0,0-23.81-19.58C59.53,179.29,16,176,16,176s11.37,51.53,41.36,79.83C27.37,284.14,16,335.67,16,335.67s43.53-3.29,79.89-29.85a259.18,259.18,0,0,0,23.61-19.41C145.6,307.55,189.24,347.75,240,360l-16,56c39.43-6.67,78.86-35.51,94.72-48.25C448,362,496,279,496,256c0-22-48-106-176.89-111.73C303.52,131.78,263.76,102.72,224,96Z"/>
        <circle cx="416" cy="240" r="16" />
        <path stroke-miterlimit="20" d="M378.37,356a199.22,199.22,0,0,1,0-200"/>
    </symbol>
    <symbol id="iconSportsAndHobbies" viewBox="0 0 512 512">
        <path d="M388,288a76,76,0,1,0,76,76,76.24,76.24,0,0,0-76-76Z"/>
        <path d="M124,288a76,76,0,1,0,76,76,76.24,76.24,0,0,0-76-76Z"/>
        <polyline points="256 360 256 274 192 232 272 144 312 216 368 216"/>
        <path d="M320,136a31.89,31.89,0,0,0,32-32.1A31.55,31.55,0,0,0,320.2,72a32,32,0,1,0-.2,64Z"/>
    </symbol>
    <symbol id="iconHomeAndGarden" viewBox="0 0 512 512">
        <path d="M384,240H96V136a40.12,40.12,0,0,1,40-40H376a40.12,40.12,0,0,1,40,40V240Z"/>
        <path d="M48,416V304a64.19,64.19,0,0,1,64-64H400a64.19,64.19,0,0,1,64,64V416"/>
        <path d="M48,416v-8a24.07,24.07,0,0,1,24-24H440a24.07,24.07,0,0,1,24,24v8"/>
        <path d="M112,240V224a32.09,32.09,0,0,1,32-32h80a32.09,32.09,0,0,1,32,32v16"/>
        <path d="M256,240V224a32.09,32.09,0,0,1,32-32h80a32.09,32.09,0,0,1,32,32v16"/>
    </symbol>
    <symbol id="iconFreeGiving" viewBox="0 0 512 512">
        <path d="M352.92,80C288,80,256,144,256,144s-32-64-96.92-64C106.32,80,64.54,124.14,64,176.81c-1.1,109.33,86.73,187.08,183,252.42a16,16,0,0,0,18,0c96.26-65.34,184.09-143.09,183-252.42C447.46,124.14,405.68,80,352.92,80Z"/>
    </symbol>
    <symbol id="iconEducation" viewBox="0 0 512 512">
        <polygon points="32 192 256 64 480 192 256 320 32 192"/>
        <polyline points="112 240 112 368 256 448 400 368 400 240"/>
        <line x1="480" y1="368" x2="480" y2="192"/>
        <line x1="256" y1="320" x2="256" y2="448"/>
    </symbol>
    <symbol id="iconMiscellaneous" viewBox="0 0 512 512">
        <polygon points="336 320 32 320 184 48 336 320"/>
        <path d="M265.32,194.51A144,144,0,1,1,192,320"/>
    </symbol>
    <symbol id="iconConsumerElectronicsAndAppliances" viewBox="0 0 512 512">
        <path d="M 48,494 L 48,18 L 464,18 L 464,494 Z" />
        <line x1="48" y1="110" x2="464" y2="110" />
        <line x1="111" y1="64" x2="131" y2="64" />
        <line x1="172" y1="64" x2="192" y2="64" />
        <line x1="400" y1="64" x2="400" y2="64" />
        <circle cx="256" cy="302" r="134" />
        <circle cx="256" cy="302" r="78" />
        <line x1="285" y1="302" x2="410" y2="302" />
    </symbol>
</svg>
