<?xml version="1.0" encoding="UTF-8"?>
<!DOCTYPE svg PUBLIC "-//W3C//DTD SVG 1.1//EN" "http://www.w3.org/Graphics/SVG/1.1/DTD/svg11.dtd">
<!-- Creator: CorelDRAW -->
<svg xmlns="http://www.w3.org/2000/svg" xml:space="preserve" width="2115px" height="1396px" version="1.1" style="shape-rendering:geometricPrecision; text-rendering:geometricPrecision; image-rendering:optimizeQuality; fill-rule:evenodd; clip-rule:evenodd"
viewBox="0 0 2115 1396.108"
 xmlns:xlink="http://www.w3.org/1999/xlink"
 xmlns:xodm="http://www.corel.com/coreldraw/odm/2003">
 <defs>
  <style type="text/css">
   <![CDATA[
    .fil1 {fill:#055AA5;fill-rule:nonzero}
    .fil0 {fill:#1999D5;fill-rule:nonzero}
    .fil2 {fill:#FDC406;fill-rule:nonzero}
   ]]>
  </style>
 </defs>
 <g id="Warstwa_x0020_1">
  <metadata id="CorelCorpID_0Corel-Layer"/>
  <g id="_2187275854144">
   <path class="fil0" d="M1720.22 731.441c-8.678,8.876 -19.4,13.242 -31.943,13.316 -12.352,0.039 -22.993,-4.362 -31.998,-13.355 -8.946,-9.004 -13.402,-19.813 -13.456,-32.526 -0.039,-12.687 4.281,-23.53 12.977,-32.417 8.686,-8.788 19.421,-13.329 32.085,-13.38 12.541,-0.054 23.311,4.378 32.082,13.138 8.783,8.795 13.211,19.588 13.254,32.259 0.071,13.044 -4.234,24.011 -13.001,32.965zm15.995 -262.545l0.475 113.804c-15.389,-10.98 -34.338,-16.403 -57.029,-16.31 -34.669,0.144 -63.673,12.834 -86.912,37.973 -23.151,25.194 -34.757,57.161 -34.61,95.947 0.199,36.641 11.559,67.74 34.012,93.032 22.496,25.301 49.428,37.86 80.943,37.689 25.156,-0.097 47.204,-9.203 65.897,-27.317l0.109 23.53 80.725 -0.338 -1.555 -358.357 -82.055 0.347zm-1066.476 236.726c-1.054,-4.682 -1.566,-9.071 -1.566,-13.037 -0.055,-14.048 4.957,-26.512 15.228,-37.406 10.105,-10.967 22.049,-16.423 35.626,-16.477 11.069,-0.04 19.785,3.243 26.282,9.933l-75.57 56.987zm121.813 -112.374c-20,-15.276 -43.257,-22.854 -69.862,-22.737 -35.971,0.152 -66.383,13.285 -91.051,39.49 -24.667,26.17 -36.925,58.296 -36.742,96.394 0.163,38.471 11.951,69.696 35.291,93.844 23.533,24.104 54.529,36.088 93.147,35.908 36.652,-0.166 69.7,-10.139 99.038,-29.964l-6.706 -84.178c-28.095,25.882 -56.01,38.857 -83.926,38.997 -10.738,0.041 -20.291,-1.812 -28.736,-5.471l133.338 -97.23c-9.246,-28.091 -23.814,-49.688 -43.791,-65.053zm283.159 -20.75l-87.521 0.362 -56.422 115.577 -0.914 -216.038 -82.214 0.329 1.547 358.373 82.207 -0.362 -0.576 -131.241 62.394 130.965 90.407 -0.373 -70.644 -138.547 61.736 -119.045zm74.867 131.075c-0.875,-4.697 -1.395,-9.095 -1.403,-13.052 -0.081,-14.068 5.027,-26.528 15.158,-37.407 10.161,-10.976 21.972,-16.422 35.634,-16.476 11.041,-0.04 19.856,3.238 26.337,9.933l-75.726 57.002zm121.907 -112.406c-19.922,-15.264 -43.257,-22.853 -69.886,-22.728 -35.94,0.144 -66.32,13.308 -90.95,39.502 -24.744,26.165 -37.018,58.299 -36.862,96.398 0.166,38.463 11.951,69.663 35.404,93.804 23.451,24.137 54.505,36.118 93.069,35.936 36.667,-0.164 69.68,-10.135 99.131,-29.906l-6.73 -84.232c-28.114,25.894 -56.042,38.871 -83.995,38.98 -10.669,0.047 -20.19,-1.812 -28.721,-5.439l133.338 -97.238c-9.192,-28.106 -23.83,-49.696 -43.798,-65.077zm-844.917 115.519c-0.972,-4.704 -1.493,-9.106 -1.501,-13.035 -0.094,-14.083 5.023,-26.52 15.155,-37.435 10.182,-10.963 22.087,-16.402 35.637,-16.488 11.123,-0.031 19.845,3.262 26.317,9.942l-75.608 57.016zm121.84 -112.389c-20.016,-15.271 -43.27,-22.845 -69.89,-22.72 -35.94,0.128 -66.34,13.284 -91.013,39.501 -24.673,26.135 -37.013,58.277 -36.846,96.383 0.147,38.471 11.928,69.663 35.434,93.793 23.445,24.14 54.529,36.122 93.07,35.963 36.633,-0.164 69.711,-10.144 99.055,-29.972l-6.642 -84.159c-28.141,25.847 -56.119,38.833 -83.929,38.942 -10.762,0.054 -20.292,-1.797 -28.774,-5.448l133.329 -97.221c-9.207,-28.083 -23.826,-49.704 -43.794,-65.062zm-277.541 -18.339l-23.289 138.983 -32.157 -138.745 -54 0.237 -31.492 139.029 -23.982 -138.785 -87.008 0.377 61.969 257.352 74.852 -0.327 28.137 -124.418 32.173 124.17 77.347 -0.336 62.082 -257.891 -84.632 0.354zm1199.692 -9.086c-25.967,0.117 -46.581,9.67 -61.616,28.731l-0.054 -24.54 -80.857 0.351 1.158 257.622 82.221 -0.373 -0.601 -136.253c-0.132,-26.454 8.735,-39.716 26.551,-39.785 10.007,-0.063 16.834,4.202 20.419,12.534 2.347,5.311 3.475,14.149 3.522,26.466l0.599 136.828 82.234 -0.365 -0.758 -173.935c-0.253,-58.42 -24.533,-87.495 -72.818,-87.281z"/>
   <path class="fil1" d="M727.997 417.409c0,-21.28 -7.124,-39.329 -21.396,-54.101 -14.274,-14.733 -32.037,-22.124 -53.381,-22.124 -21.323,0 -39.067,7.391 -53.241,22.124 -14.199,14.772 -21.274,32.821 -21.274,54.101 0,21.324 7.151,39.433 21.433,54.246 14.227,14.857 31.947,22.27 53.082,22.27 21.149,0 38.907,-7.413 53.244,-22.27 14.344,-14.813 21.533,-32.922 21.533,-54.246zm-642.042 -34.642c0,-25.233 -14.931,-37.892 -44.756,-37.892l-8.6 0 0 76.71 8.379 0c14.229,0 25.308,-3.391 33.191,-10.333 7.86,-6.864 11.786,-16.39 11.786,-28.485zm22.134 118.754l-14.974 7.636 -60.516 -77.713 0 74.05 -16.971 2.191 0 -178.035 22.873 0c21.136,0 37.158,4.5 48.094,13.485 10.884,9.036 16.319,22.085 16.319,39.106 0,14.288 -4.358,25.995 -13.011,35.168 -8.695,9.212 -20.684,14.511 -35.902,15.984l54.088 68.128zm152.026 -86.073l-28.312 -59.739 -28.744 59.739 57.056 0zm60.728 88.8l-16.213 4.424 -37.844 -78.462 -71.338 0 -37.879 78.462 -15.249 -4.424 90 -179.759 88.523 179.759zm137.025 -86.338c0,-21.634 -6.542,-39.217 -19.686,-52.753 -13.121,-13.511 -30.809,-20.287 -53.077,-20.287l-13.062 0 0 145.117 11.313 0c22.782,0 40.892,-6.611 54.328,-19.934 13.446,-13.286 20.184,-30.657 20.184,-52.143zm17.722 -1.226c0,26.262 -8.462,47.469 -25.348,63.702 -17.559,16.725 -41.053,25.111 -70.577,25.111l-24.593 0 0 -175.848 27.267 0c28.57,0 51.346,8.349 68.414,25.085 16.536,16.032 24.837,36.694 24.837,61.95zm51.188 88.813l-16.957 2.187 0 -178.035 16.957 -2.496 0 178.344zm218.913 -88.088c0,24.123 -8.185,45.182 -24.583,63.228 -17.87,19.664 -40.492,29.521 -67.888,29.521 -23.443,0 -43.354,-7.31 -59.766,-21.907 -21.636,-19.149 -32.445,-42.767 -32.445,-70.842 0,-27.68 10.809,-51.205 32.445,-70.56 16.412,-14.597 36.323,-21.899 59.766,-21.899 23.448,0 43.456,7.302 60.013,21.899 21.675,19.02 32.458,42.542 32.458,70.56z"/>
   <path class="fil2" d="M431.32 1020.219c49.334,57.92 113.62,110.95 188.794,156.86 75.002,45.834 161.727,85.165 256.641,115.646 95.852,30.785 201.258,52.893 312.91,63.58 114.266,10.902 225.524,8.916 329.519,-4.487 61.424,-7.912 120.471,-19.991 176.336,-35.647 -7.518,0.562 -14.99,1.194 -22.576,1.67 -235.014,15.565 -446.31,24.29 -694.913,-44.924 -113.021,-31.455 -255.305,-97.145 -327.011,-141.187 -71.961,-44.164 -133.458,-95.063 -180.608,-150.666 -47.817,-56.38 -89.205,-19.623 -39.092,39.155zm1174.444 -108.874c-7.632,-3.816 -14.686,-5.739 -21.267,-5.739 -2.722,0 -5.583,3.98 -8.585,11.885 -1.91,5.458 -5.607,18.258 -11.038,38.439 -14.727,54.829 -22.084,91.527 -22.084,110.069 0,6.8 5.436,13.778 16.368,20.882 9.508,6.568 17.147,9.797 22.902,9.797 1.601,0 3.245,-3.705 4.902,-11.037 2.705,-13.126 5.582,-24.136 8.592,-33.149 12.266,-37.091 32.864,-70.088 61.777,-99.018 -21.825,51.592 -32.742,89.069 -32.742,112.525 0,6.8 3.974,13.084 11.882,18.841 11.99,8.432 19.633,12.651 22.892,12.651 2.19,0 4.342,-3.643 6.59,-11.013 3.767,-13.963 7.725,-25.642 11.815,-35.215 16.108,-38.463 36.271,-68.859 60.559,-91.231 -19.066,46.101 -28.631,80.053 -28.631,101.873 0,9.556 4.786,17.99 14.315,25.346 8.191,6.021 15.546,9.003 22.092,9.003 7.092,0 15.559,-8.427 25.381,-25.33 9.019,-15.531 13.491,-26.075 13.491,-31.534 0,-1.913 -0.345,-3.138 -1.026,-3.663 -0.669,-0.568 -1.711,-0.805 -3.052,-0.805 -0.845,0 -2.602,0.237 -5.335,0.805 -2.714,0.525 -5.163,0.802 -7.356,0.802l-3.282 0c15.004,-54.53 22.516,-89.606 22.516,-105.138 0,-7.618 -3.974,-14.2 -11.878,-19.623 -6.812,-4.358 -13.491,-6.582 -20.05,-6.582 -11.73,0 -35.607,24.446 -71.608,73.253 9.552,-29.192 14.346,-45.813 14.346,-49.917 0,-6.275 -3.95,-12 -11.873,-17.177 -6.824,-4.36 -13.244,-6.536 -19.241,-6.536 -11.171,0 -31.225,21.947 -60.137,65.858 7.894,-24.541 11.874,-39.394 11.874,-44.611 0,-5.156 -4.4,-10.078 -13.109,-14.711zm488.603 -206.612c-11.186,-75.119 -51.021,-164.6 -100.978,-231.784 -49.244,-66.211 -115.022,-128.191 -193.082,-183.264 -77.865,-54.981 -168.881,-103.755 -269.433,-143.557 -101.498,-40.144 -213.969,-71.652 -334.021,-91.189 -122.895,-20.038 -243.382,-25.839 -356.898,-18.806 -67.056,4.176 -131.794,12.975 -193.39,25.945 8.215,-0.051 16.325,-0.198 24.555,-0.198 255.447,0 484.707,5.714 748.735,98.428 120.051,42.168 269.306,123.446 343.773,176.241 74.698,52.95 137.578,112.442 184.646,175.952 47.701,64.462 235.275,388.904 -47.068,576.097 -104.569,69.303 -295.328,112.385 -423.425,98.233 1.442,-17.438 3.343,-41.823 5.7,-73.21 4.634,1.9 8.977,2.854 13.068,2.854 11.205,0 20.064,-7.488 26.604,-22.515 8.722,-20.167 13.087,-36.003 13.087,-47.449 0,-4.67 -1.354,-6.963 -4.074,-6.963 -1.388,0 -5.518,3.219 -12.474,9.595 -6.957,6.451 -12.482,9.633 -16.6,9.633 -2.994,0 -6.015,-2.04 -8.978,-6.157 30.004,-65.974 45.007,-110.846 45.007,-134.589 0,-14.168 -4.511,-25.07 -13.53,-32.695 -10.902,-9.276 -19.086,-13.902 -24.548,-13.902 -4.895,0 -11.706,12.526 -20.447,37.616 -9.525,27.008 -19.615,64.259 -30.248,111.665l-2.046 0c-11.461,0 -19.365,3.573 -23.743,10.67 -4.375,7.095 -6.566,18.424 -6.566,33.96 0,4.88 1.364,8.717 4.101,11.438 1.652,1.68 6.281,4.763 13.903,9.405 -10.364,54.576 -15.529,93.424 -15.529,116.638 0,5.685 1.143,10.265 3.461,13.656 2.332,3.468 6.889,8.261 13.702,14.545 12.013,10.909 21.157,16.364 27.417,16.364 129.419,0 215.102,-19.665 322.392,-51.272 295.336,-86.946 327.549,-352.948 306.927,-491.385z"/>
  </g>
 </g>
</svg>
