<?xml version="1.0" encoding="UTF-8"?>
<!DOCTYPE svg PUBLIC "-//W3C//DTD SVG 1.1//EN" "http://www.w3.org/Graphics/SVG/1.1/DTD/svg11.dtd">
<!-- Creator: CorelDRAW -->
<svg xmlns="http://www.w3.org/2000/svg" xml:space="preserve" width="2206px" height="1408px" version="1.1" style="shape-rendering:geometricPrecision; text-rendering:geometricPrecision; image-rendering:optimizeQuality; fill-rule:evenodd; clip-rule:evenodd"
viewBox="0 0 2205.999 1408.103"
 xmlns:xlink="http://www.w3.org/1999/xlink"
 xmlns:xodm="http://www.corel.com/coreldraw/odm/2003">
 <defs>
  <style type="text/css">
   <![CDATA[
    .fil1 {fill:#055AA5;fill-rule:nonzero}
    .fil0 {fill:#1999D5;fill-rule:nonzero}
    .fil2 {fill:#FDC406;fill-rule:nonzero}
   ]]>
  </style>
 </defs>
 <g id="Warstwa_x0020_1">
  <metadata id="CorelCorpID_0Corel-Layer"/>
  <g id="_2186265542288">
   <path class="fil0" d="M1804.603 739.133c-9.187,9.398 -20.539,14.019 -33.818,14.097 -13.077,0.042 -24.342,-4.618 -33.876,-14.137 -9.47,-9.534 -14.187,-20.976 -14.244,-34.436 -0.042,-13.431 4.531,-24.91 13.738,-34.319 9.196,-9.303 20.561,-14.111 33.967,-14.164 13.277,-0.058 24.679,4.635 33.965,13.908 9.298,9.311 13.986,20.737 14.032,34.152 0.075,13.809 -4.483,25.42 -13.764,34.899zm16.932 -277.949l0.503 120.482c-16.291,-11.625 -36.352,-17.366 -60.375,-17.267 -36.702,0.151 -67.408,13.587 -92.01,40.2 -24.51,26.672 -36.797,60.515 -36.641,101.577 0.21,38.79 12.237,71.714 36.007,98.489 23.816,26.787 52.329,40.082 85.693,39.901 26.631,-0.103 49.973,-9.742 69.763,-28.919l0.115 24.91 85.462 -0.358 -1.647 -379.381 -86.87 0.366zm-1129.047 250.615c-1.115,-4.957 -1.658,-9.603 -1.658,-13.802 -0.058,-14.872 5.249,-28.068 16.122,-39.601 10.698,-11.61 23.343,-17.386 37.716,-17.443 11.719,-0.042 20.947,3.433 27.825,10.516l-80.005 60.33zm128.961 -118.967c-21.174,-16.172 -45.795,-24.195 -73.961,-24.071 -38.082,0.161 -70.278,14.064 -96.394,41.808 -26.113,27.704 -39.091,61.715 -38.897,102.049 0.172,40.728 12.652,73.784 37.362,99.349 24.914,25.519 57.727,38.206 98.612,38.015 38.802,-0.176 73.789,-10.734 104.848,-31.722l-7.1 -89.116c-29.743,27.4 -59.295,41.136 -88.85,41.284 -11.367,0.045 -21.48,-1.918 -30.422,-5.792l141.162 -102.934c-9.788,-29.739 -25.211,-52.603 -46.36,-68.87zm299.772 -21.967l-92.656 0.383 -59.732 122.357 -0.968 -228.712 -87.037 0.349 1.637 379.398 87.03 -0.383 -0.609 -138.941 66.055 138.65 95.71 -0.396 -74.788 -146.675 65.358 -126.03zm79.259 138.764c-0.926,-4.972 -1.477,-9.628 -1.485,-13.817 -0.087,-14.893 5.322,-28.084 16.047,-39.601 10.757,-11.62 23.261,-17.386 37.726,-17.443 11.688,-0.042 21.02,3.428 27.881,10.516l-80.169 60.345zm129.06 -119c-21.091,-16.159 -45.795,-24.193 -73.986,-24.061 -38.05,0.151 -70.212,14.088 -96.287,41.818 -26.195,27.702 -39.189,61.721 -39.025,102.055 0.177,40.719 12.653,73.75 37.481,99.307 24.828,25.553 57.703,38.238 98.53,38.045 38.818,-0.173 73.767,-10.73 104.947,-31.661l-7.125 -89.174c-29.763,27.413 -59.329,41.152 -88.923,41.267 -11.295,0.051 -21.375,-1.918 -30.405,-5.757l141.16 -102.944c-9.731,-29.754 -25.228,-52.611 -46.367,-68.895zm-894.49 122.297c-1.029,-4.98 -1.581,-9.64 -1.588,-13.801 -0.1,-14.909 5.317,-28.076 16.043,-39.63 10.78,-11.607 23.383,-17.365 37.729,-17.456 11.776,-0.032 21.008,3.454 27.861,10.526l-80.045 60.361zm128.989 -118.982c-21.19,-16.169 -45.808,-24.187 -73.99,-24.054 -38.049,0.135 -70.233,14.064 -96.353,41.818 -26.12,27.669 -39.184,61.696 -39.008,102.038 0.156,40.728 12.628,73.751 37.514,99.296 24.82,25.556 57.727,38.241 98.529,38.073 38.782,-0.173 73.802,-10.739 104.866,-31.731l-7.03 -89.096c-29.793,27.363 -59.412,41.111 -88.854,41.226 -11.393,0.057 -21.482,-1.902 -30.462,-5.767l141.151 -102.925c-9.747,-29.73 -25.223,-52.62 -46.363,-68.878zm-293.824 -19.417l-24.656 147.138 -34.044 -146.885 -57.168 0.25 -33.34 147.187 -25.388 -146.928 -92.114 0.399 65.606 272.451 79.242 -0.346 29.789 -131.719 34.06 131.456 81.885 -0.355 65.725 -273.022 -89.597 0.374zm1270.078 -9.618c-27.49,0.123 -49.314,10.237 -65.23,30.417l-0.058 -25.98 -85.601 0.371 1.226 272.737 87.046 -0.395 -0.637 -144.248c-0.14,-28.005 9.248,-42.045 28.108,-42.118 10.594,-0.067 17.823,4.449 21.618,13.269 2.485,5.623 3.679,14.979 3.729,28.019l0.634 144.856 87.058 -0.387 -0.803 -184.14c-0.267,-61.847 -25.971,-92.628 -77.09,-92.401z"/>
   <path class="fil1" d="M754.164 406.677c0,-22.529 -7.542,-41.637 -22.651,-57.275 -15.111,-15.598 -33.916,-23.423 -56.513,-23.423 -22.574,0 -41.359,7.825 -56.363,23.423 -15.033,15.638 -22.522,34.746 -22.522,57.275 0,22.574 7.569,41.746 22.689,57.428 15.062,15.73 33.822,23.577 56.196,23.577 22.39,0 41.19,-7.847 56.368,-23.577 15.187,-15.682 22.796,-34.854 22.796,-57.428zm-679.71 -36.675c0,-26.714 -15.808,-40.115 -47.382,-40.115l-9.105 0 0 81.21 8.871 0c15.064,0 26.792,-3.589 35.138,-10.939 8.321,-7.266 12.478,-17.351 12.478,-30.156zm23.432 125.722l-15.853 8.083 -64.066 -82.271 0 78.393 -17.966 2.32 0 -188.479 24.215 0c22.376,0 39.337,4.762 50.915,14.275 11.523,9.565 17.276,23.381 17.276,41.4 0,15.126 -4.613,27.521 -13.773,37.232 -9.206,9.752 -21.899,15.362 -38.01,16.922l57.262 72.125zm160.946 -91.123l-29.974 -63.244 -30.429 63.244 60.403 0zm64.291 94.009l-17.165 4.684 -40.064 -83.065 -75.524 0 -40.101 83.065 -16.144 -4.684 95.281 -190.305 93.717 190.305zm145.064 -91.403c0,-22.904 -6.926,-41.518 -20.84,-55.848 -13.892,-14.304 -32.617,-21.477 -56.192,-21.477l-13.828 0 0 153.63 11.977 0c24.118,0 43.29,-6.998 57.515,-21.103 14.235,-14.065 21.368,-32.455 21.368,-55.202zm18.762 -1.298c0,27.803 -8.959,50.254 -26.836,67.44 -18.589,17.705 -43.461,26.584 -74.717,26.584l-26.036 0 0 -186.165 28.867 0c30.246,0 54.358,8.838 72.428,26.557 17.506,16.972 26.294,38.846 26.294,65.584zm54.191 94.024l-17.952 2.314 0 -188.479 17.952 -2.643 0 188.808zm231.757 -93.256c0,25.538 -8.666,47.833 -26.026,66.938 -18.918,20.817 -42.867,31.253 -71.871,31.253 -24.817,0 -45.897,-7.74 -63.272,-23.194 -22.905,-20.272 -34.348,-45.275 -34.348,-74.997 0,-29.304 11.443,-54.209 34.348,-74.7 17.375,-15.454 38.455,-23.184 63.272,-23.184 24.824,0 46.006,7.73 63.534,23.184 22.947,20.136 34.363,45.038 34.363,74.7z"/>
   <path class="fil2" d="M440.082 1044.854c52.228,61.318 120.286,117.459 199.87,166.063 79.403,48.524 171.216,90.162 271.698,122.432 101.477,32.59 213.067,55.995 331.269,67.31 120.97,11.541 238.755,9.438 348.852,-4.75 65.029,-8.377 127.54,-21.164 186.683,-37.739 -7.96,0.595 -15.871,1.264 -23.902,1.768 -248.802,16.477 -472.495,25.715 -735.683,-47.56 -119.653,-33.301 -270.285,-102.845 -346.197,-149.471 -76.184,-46.755 -141.289,-100.641 -191.205,-159.505 -50.623,-59.688 -94.439,-20.774 -41.385,41.452zm1243.349 -115.262c-8.08,-4.039 -15.548,-6.076 -22.515,-6.076 -2.881,0 -5.91,4.214 -9.088,12.582 -2.022,5.779 -5.936,19.33 -11.686,40.695 -15.592,58.046 -23.38,96.898 -23.38,116.527 0,7.2 5.756,14.586 17.329,22.107 10.065,6.953 18.153,10.372 24.245,10.372 1.695,0 3.435,-3.923 5.19,-11.684 2.864,-13.896 5.909,-25.553 9.097,-35.095 12.985,-39.266 34.792,-74.199 65.4,-104.827 -23.105,54.619 -34.662,94.294 -34.662,119.127 0,7.2 4.207,13.851 12.579,19.946 12.694,8.927 20.785,13.394 24.235,13.394 2.318,0 4.596,-3.857 6.976,-11.66 3.989,-14.781 8.179,-27.146 12.509,-37.281 17.053,-40.719 38.4,-72.898 64.112,-96.583 -20.185,48.805 -30.311,84.75 -30.311,107.85 0,10.117 5.067,19.045 15.155,26.832 8.672,6.375 16.458,9.533 23.388,9.533 7.509,0 16.472,-8.923 26.87,-26.817 9.548,-16.442 14.283,-27.605 14.283,-33.384 0,-2.025 -0.366,-3.322 -1.087,-3.878 -0.708,-0.602 -1.811,-0.852 -3.232,-0.852 -0.892,0 -2.753,0.25 -5.648,0.852 -2.871,0.556 -5.465,0.849 -7.787,0.849l-3.473 0c15.884,-57.729 23.836,-94.863 23.836,-111.307 0,-8.064 -4.207,-15.033 -12.576,-20.774 -7.21,-4.614 -14.281,-6.969 -21.225,-6.969 -12.418,0 -37.695,25.881 -75.81,77.552 10.114,-30.905 15.188,-48.501 15.188,-52.846 0,-6.644 -4.182,-12.704 -12.569,-18.185 -7.225,-4.615 -14.021,-6.919 -20.37,-6.919 -11.827,0 -33.056,23.234 -63.665,69.721 8.357,-25.98 12.571,-41.705 12.571,-47.228 0,-5.458 -4.659,-10.669 -13.879,-15.574zm517.27 -218.734c-11.842,-79.526 -54.014,-174.257 -106.903,-245.384 -52.133,-70.095 -121.769,-135.711 -204.41,-194.015 -82.433,-58.207 -178.789,-109.843 -285.241,-151.98 -107.452,-42.499 -226.522,-75.856 -353.618,-96.539 -130.104,-21.214 -257.661,-27.354 -377.838,-19.909 -70.99,4.421 -139.526,13.736 -204.737,27.467 8.698,-0.054 17.283,-0.21 25.997,-0.21 270.435,0 513.145,6.05 792.664,104.203 127.094,44.642 285.106,130.688 363.941,186.581 79.082,56.057 145.651,119.039 195.48,186.276 50.5,68.244 249.08,411.721 -49.829,609.897 -110.704,73.368 -312.656,118.978 -448.268,103.996 1.527,-18.461 3.539,-44.277 6.035,-77.506 4.905,2.013 9.504,3.023 13.834,3.023 11.863,0 21.241,-7.928 28.165,-23.837 9.233,-21.35 13.855,-38.115 13.855,-50.233 0,-4.943 -1.433,-7.371 -4.313,-7.371 -1.469,0 -5.841,3.408 -13.205,10.158 -7.366,6.829 -13.216,10.198 -17.575,10.198 -3.169,0 -6.368,-2.159 -9.504,-6.518 31.764,-69.845 47.647,-117.349 47.647,-142.485 0,-15 -4.776,-26.541 -14.323,-34.613 -11.542,-9.821 -20.206,-14.718 -25.989,-14.718 -5.182,0 -12.393,13.261 -21.646,39.822 -10.085,28.593 -20.767,68.029 -32.023,118.217l-2.166 0c-12.133,0 -20.502,3.782 -25.136,11.296 -4.632,7.512 -6.951,19.505 -6.951,35.952 0,5.167 1.444,9.229 4.341,12.11 1.75,1.778 6.651,5.041 14.719,9.957 -10.973,57.777 -16.44,98.905 -16.44,123.48 0,6.019 1.21,10.868 3.664,14.457 2.469,3.672 7.293,8.747 14.506,15.399 12.717,11.549 22.398,17.323 29.025,17.323 137.012,0 227.722,-20.818 341.307,-54.278 312.664,-92.048 346.767,-373.657 324.935,-520.216z"/>
  </g>
 </g>
</svg>
